<svg width="12" height="11" viewBox="0 0 12 11" fill="none" xmlns="http://www.w3.org/2000/svg">
<path d="M10.4269 -3.05176e-05H1.75533C0.958503 -3.05176e-05 0.310059 0.662511 0.310059 1.47666V9.35234C0.310059 10.1665 0.958503 10.829 1.75533 10.829H10.4269C11.2238 10.829 11.8722 10.1665 11.8722 9.35234V1.47666C11.8722 0.662511 11.2238 -3.05176e-05 10.4269 -3.05176e-05ZM10.4269 9.84457H1.75533C1.48988 9.84457 1.27357 9.62405 1.27357 9.35234V2.46112H10.9087V9.35234C10.9087 9.62405 10.6924 9.84457 10.4269 9.84457Z" fill="#B0DDE8"/>
<path d="M9.46345 4.9223H6.09113C5.8252 4.9223 5.60938 4.70178 5.60938 4.43007C5.60938 4.15835 5.8252 3.93784 6.09113 3.93784H9.46345C9.72938 3.93784 9.94521 4.15835 9.94521 4.43007C9.94521 4.70178 9.72938 4.9223 9.46345 4.9223Z" fill="#B0DDE8"/>
<path d="M9.46345 6.8912H6.09113C5.8252 6.8912 5.60938 6.67068 5.60938 6.39897C5.60938 6.12726 5.8252 5.90674 6.09113 5.90674H9.46345C9.72938 5.90674 9.94521 6.12726 9.94521 6.39897C9.94521 6.67068 9.72938 6.8912 9.46345 6.8912Z" fill="#B0DDE8"/>
<path d="M9.46345 8.86013H6.09113C5.8252 8.86013 5.60938 8.63961 5.60938 8.3679C5.60938 8.09619 5.8252 7.87567 6.09113 7.87567H9.46345C9.72938 7.87567 9.94521 8.09619 9.94521 8.3679C9.94521 8.63961 9.72938 8.86013 9.46345 8.86013Z" fill="#B0DDE8"/>
<path d="M4.16434 4.9223H2.71906C2.45313 4.9223 2.2373 4.70178 2.2373 4.43007C2.2373 4.15835 2.45313 3.93784 2.71906 3.93784H4.16434C4.43027 3.93784 4.64609 4.15835 4.64609 4.43007C4.64609 4.70178 4.43027 4.9223 4.16434 4.9223Z" fill="#B0DDE8"/>
<path d="M4.16434 6.8912H2.71906C2.45313 6.8912 2.2373 6.67068 2.2373 6.39897C2.2373 6.12726 2.45313 5.90674 2.71906 5.90674H4.16434C4.43027 5.90674 4.64609 6.12726 4.64609 6.39897C4.64609 6.67068 4.43027 6.8912 4.16434 6.8912Z" fill="#B0DDE8"/>
<path d="M4.16434 8.86013H2.71906C2.45313 8.86013 2.2373 8.63961 2.2373 8.3679C2.2373 8.09619 2.45313 7.87567 2.71906 7.87567H4.16434C4.43027 7.87567 4.64609 8.09619 4.64609 8.3679C4.64609 8.63961 4.43027 8.86013 4.16434 8.86013Z" fill="#B0DDE8"/>
</svg>
