<svg width="11" height="13" viewBox="0 0 11 13" fill="none" xmlns="http://www.w3.org/2000/svg">
<path d="M8.36987 6.46152H7.67236V10.0249H8.36987V6.46152Z" fill="#B0DDE8"/>
<path d="M2.7898 9.31219H2.09229V10.0249H2.7898V9.31219Z" fill="#B0DDE8"/>
<path d="M5.57983 9.31219H4.88232V10.0249H5.57983V9.31219Z" fill="#B0DDE8"/>
<path d="M5.57983 6.46152H4.88232V7.17419H5.57983V6.46152Z" fill="#B0DDE8"/>
<path d="M2.7898 6.46152H2.09229V7.17419H2.7898V6.46152Z" fill="#B0DDE8"/>
<path d="M9.41636 -3.05176e-05H1.04626C0.46933 -3.05176e-05 0 0.479503 0 1.06898V11.0939C0 11.6834 0.46933 12.1629 1.04626 12.1629H9.41636C9.99329 12.1629 10.4626 11.6834 10.4626 11.0939V1.06898C10.4626 0.479503 9.99329 -3.05176e-05 9.41636 -3.05176e-05ZM3.48754 10.3812C3.48754 10.5782 3.33156 10.7376 3.13879 10.7376H1.74377C1.551 10.7376 1.39502 10.5782 1.39502 10.3812V8.95588C1.39502 8.75892 1.551 8.59954 1.74377 8.59954H3.13879C3.33156 8.59954 3.48754 8.75892 3.48754 8.95588V10.3812ZM3.48754 7.53053C3.48754 7.72749 3.33156 7.88687 3.13879 7.88687H1.74377C1.551 7.88687 1.39502 7.72749 1.39502 7.53053V6.10519C1.39502 5.90823 1.551 5.74885 1.74377 5.74885H3.13879C3.33156 5.74885 3.48754 5.90823 3.48754 6.10519V7.53053ZM6.27758 10.3812C6.27758 10.5782 6.12159 10.7376 5.92882 10.7376H4.5338C4.34104 10.7376 4.18505 10.5782 4.18505 10.3812V8.95588C4.18505 8.75892 4.34104 8.59954 4.5338 8.59954H5.92882C6.12159 8.59954 6.27758 8.75892 6.27758 8.95588V10.3812ZM6.27758 7.53053C6.27758 7.72749 6.12159 7.88687 5.92882 7.88687H4.5338C4.34104 7.88687 4.18505 7.72749 4.18505 7.53053V6.10519C4.18505 5.90823 4.34104 5.74885 4.5338 5.74885H5.92882C6.12159 5.74885 6.27758 5.90823 6.27758 6.10519V7.53053ZM9.06761 10.3812C9.06761 10.5782 8.91162 10.7376 8.71885 10.7376H7.32384C7.13107 10.7376 6.97508 10.5782 6.97508 10.3812V6.10519C6.97508 5.90823 7.13107 5.74885 7.32384 5.74885H8.71885C8.91162 5.74885 9.06761 5.90823 9.06761 6.10519V10.3812ZM9.06761 4.67985C9.06761 4.87681 8.91162 5.03618 8.71885 5.03618H1.74377C1.551 5.03618 1.39502 4.87681 1.39502 4.67985V1.78165C1.39502 1.58469 1.551 1.42531 1.74377 1.42531H8.71885C8.91162 1.42531 9.06761 1.58469 9.06761 1.78165V4.67985Z" fill="#B0DDE8"/>
<path d="M8.36985 2.13797H2.09229V4.3235H8.36985V2.13797Z" fill="#B0DDE8"/>
</svg>
