<svg width="13" height="13" viewBox="0 0 13 13" fill="none" xmlns="http://www.w3.org/2000/svg">
<path d="M11.6118 0.104472L9.19655 2.51967L10.1946 3.51772C10.3335 3.65657 10.3335 3.88169 10.1946 4.02054C10.0558 4.15937 9.83064 4.15939 9.69178 4.02054L8.69371 3.02246L7.67951 4.03666L8.67756 5.03471C8.81642 5.17356 8.81642 5.39867 8.67756 5.53753C8.53873 5.67636 8.3136 5.67638 8.17474 5.53753L7.17666 4.53945L6.16247 5.55364L7.16052 6.55169C7.29938 6.69055 7.29938 6.91566 7.16052 7.05451C7.02169 7.19334 6.79656 7.19337 6.6577 7.05451L5.65962 6.05644L4.64542 7.07063L5.64348 8.06868C5.78233 8.20753 5.78233 8.43264 5.64348 8.5715C5.50465 8.71033 5.27951 8.71035 5.14066 8.5715L4.14258 7.57342L3.12838 8.58762L4.12644 9.58567C4.26529 9.72452 4.26529 9.94963 4.12644 10.0885C3.98761 10.2273 3.76247 10.2273 3.62362 10.0885L2.62554 9.09041L0.210424 11.5058C-0.0129093 11.7291 0.145524 12.1127 0.461822 12.1127H11.8632C12.0595 12.1127 12.2187 11.9535 12.2187 11.7572V0.355892C12.2187 0.0400462 11.8354 -0.119169 11.6118 0.104472ZM9.9195 9.45795C9.9195 9.65431 9.76031 9.8135 9.56395 9.8135H6.34029C6.02461 9.8135 5.86508 9.43034 6.08889 9.20653L9.31255 5.98289C9.53591 5.75953 9.9195 5.91801 9.9195 6.23431V9.45795Z" fill="#B0DDE8"/>
</svg>
