<svg width="10" height="16" viewBox="0 0 10 16" fill="none" xmlns="http://www.w3.org/2000/svg">
<path d="M7.11724 3.89777C7.13835 3.8741 7.23707 3.79678 7.62476 3.79678L8.89588 3.79631C9.30941 3.79631 9.64568 3.46219 9.64568 3.05145V0.844754C9.64568 0.434718 9.30988 0.100596 8.89706 0.0998935L7.00896 0.0968475C5.84364 0.0968475 4.853 0.47865 4.14414 1.20113C3.43846 1.92034 3.06539 2.92434 3.06539 4.10443V5.29459H1.621C1.20748 5.29459 0.871094 5.62871 0.871094 6.03945V8.41602C0.871094 8.82676 1.20748 9.16088 1.621 9.16088H3.06539V14.7075C3.06539 15.1182 3.40177 15.4524 3.8153 15.4524H6.29101C6.70454 15.4524 7.04092 15.1182 7.04092 14.7075V9.161H8.80648C9.22 9.161 9.55627 8.82676 9.55627 8.41625L9.55721 6.03957C9.55721 5.76976 9.40943 5.52011 9.17141 5.38808C9.06113 5.32692 8.9328 5.29459 8.80046 5.29459H7.04092V4.35432C7.04092 4.04784 7.08244 3.9369 7.11724 3.89777Z" fill="#246B79"/>
</svg>
