<svg width="8" height="10" viewBox="0 0 8 10" fill="none" xmlns="http://www.w3.org/2000/svg">
<path d="M6.875 0H1.28906C0.578262 0 0 0.578262 0 1.28906V8.59375C0 9.36916 0.63084 10 1.40625 10H6.875C7.0476 10 7.1875 9.86008 7.1875 9.6875C7.1875 9.51492 7.0476 9.375 6.875 9.375H1.40625C0.975469 9.375 0.625 9.02453 0.625 8.59375C0.625 8.16297 0.975469 7.8125 1.40625 7.8125H6.875C7.0476 7.8125 7.1875 7.67258 7.1875 7.5V0.3125C7.1875 0.139922 7.0476 0 6.875 0ZM0.625 7.25451V1.28906C0.625 0.922305 0.922305 0.625 1.28906 0.625H1.30859C1.36252 0.625 1.40625 0.66873 1.40625 0.722656V7.09305C1.40625 7.14412 1.36693 7.18711 1.31598 7.19037C1.119 7.20293 0.932949 7.25625 0.766133 7.34193C0.701621 7.37506 0.625 7.32701 0.625 7.25451Z" fill="#B0DDE8"/>
<path d="M6.875 8.28125H1.40625C1.23365 8.28125 1.09375 8.42117 1.09375 8.59375C1.09375 8.76633 1.23365 8.90625 1.40625 8.90625H6.875C7.0476 8.90625 7.1875 8.76633 7.1875 8.59375C7.1875 8.42117 7.0476 8.28125 6.875 8.28125Z" fill="#B0DDE8"/>
</svg>
