<svg width="838" height="901" viewBox="0 0 838 901" fill="none" xmlns="http://www.w3.org/2000/svg">
<path d="M551.076 338.434C629.883 431.64 686.311 528.577 713.856 609.927C727.63 650.604 734.164 687.334 732.699 717.725C731.234 748.113 721.779 772.063 703.681 787.365C685.583 802.667 660.395 808.008 630.186 804.401C599.974 800.794 564.842 788.243 527.021 767.899C451.383 727.212 365.176 655.454 286.368 562.247C207.561 469.041 151.133 372.104 123.588 290.754C109.814 250.077 103.28 213.347 104.745 182.956C106.21 152.568 115.665 128.618 133.763 113.316C151.861 98.0143 177.049 92.6728 207.258 96.28C237.47 99.8875 272.602 112.438 310.423 132.782C386.061 173.469 472.268 245.227 551.076 338.434Z" stroke="url(#paint0_linear)" stroke-width="2"/>
<defs>
<linearGradient id="paint0_linear" x1="217.5" y1="460" x2="520.488" y2="382.92" gradientUnits="userSpaceOnUse">
<stop stop-color="#ECDABC"/>
<stop offset="1" stop-color="#ECDABC" stop-opacity="0"/>
</linearGradient>
</defs>
</svg>
