<svg width="10" height="18" viewBox="0 0 10 18" fill="none" xmlns="http://www.w3.org/2000/svg">
<path d="M4.93558 2.6544C5.93985 2.6544 6.75673 3.49555 6.75673 4.52965C6.75673 5.56288 5.93963 6.40404 4.93558 6.40404C3.93195 6.40404 3.11485 5.56288 3.11485 4.52965C3.11464 3.49534 3.93216 2.6544 4.93558 2.6544ZM4.93558 9.05714C7.36139 9.05714 9.33413 7.02644 9.33413 4.52965C9.33413 2.03156 7.3616 0 4.93558 0C2.50998 0 0.537032 2.03177 0.537032 4.52965C0.537032 7.02644 2.50998 9.05714 4.93558 9.05714ZM6.71504 12.7515C7.6199 12.5393 8.4834 12.1711 9.26907 11.6625C9.55831 11.4752 9.76341 11.1771 9.83926 10.834C9.91511 10.4909 9.85549 10.1309 9.67352 9.83303C9.58352 9.68541 9.46614 9.55751 9.3281 9.45664C9.19006 9.35577 9.03406 9.28391 8.86902 9.24517C8.70399 9.20643 8.53315 9.20158 8.36629 9.23088C8.19943 9.26017 8.03982 9.32306 7.89658 9.41593C6.09459 10.5825 3.77531 10.5816 1.97479 9.41593C1.83158 9.32303 1.67198 9.26013 1.50513 9.23082C1.33828 9.20151 1.16746 9.20636 1.00243 9.2451C0.837406 9.28384 0.681419 9.35571 0.543397 9.4566C0.405375 9.55748 0.288027 9.6854 0.198067 9.83303C0.0160377 10.1308 -0.04368 10.4908 0.0320472 10.8339C0.107774 11.177 0.312744 11.4751 0.601878 11.6625C1.38749 12.1709 2.25083 12.5391 3.15549 12.7515L0.69662 15.2838C0.454981 15.5327 0.319263 15.8703 0.319322 16.2222C0.319381 16.5742 0.455212 16.9117 0.696935 17.1605C0.938658 17.4093 1.26647 17.5491 1.60826 17.549C1.95005 17.5489 2.27781 17.4091 2.51945 17.1602L4.93516 14.6723L7.35234 17.1604C7.47186 17.2836 7.6138 17.3814 7.77004 17.4481C7.92629 17.5148 8.09377 17.5492 8.26292 17.5492C8.43206 17.5492 8.59954 17.5148 8.75579 17.4481C8.91203 17.3814 9.05398 17.2836 9.17349 17.1604C9.29336 17.0373 9.38846 16.8911 9.45336 16.7302C9.51825 16.5692 9.55165 16.3966 9.55165 16.2223C9.55165 16.048 9.51825 15.8755 9.45336 15.7145C9.38846 15.5535 9.29336 15.4073 9.17349 15.2843L6.71504 12.7515Z" fill="#246B79"/>
</svg>
