<svg width="10" height="10" viewBox="0 0 10 10" fill="none" xmlns="http://www.w3.org/2000/svg">
<path d="M8.9681 2.41082C9.05138 2.32685 9.10759 2.21165 9.1173 2.09368C9.12701 1.97431 9.09787 1.85148 9.03056 1.75224C9.0125 1.72517 8.991 1.6995 8.9681 1.6766L8.9674 1.6759L7.54545 0.253943C7.34211 0.0506077 7.01247 0.0506077 6.80913 0.253943C6.60579 0.457285 6.60579 0.786924 6.80913 0.99026L7.3428 1.52392L1.24216 1.52392C0.954856 1.52392 0.72168 1.7571 0.72168 2.0444C0.72168 2.33171 0.954856 2.56489 1.24216 2.56489L7.3428 2.56489L6.79525 3.11243C6.59191 3.31577 6.59191 3.64541 6.79525 3.84874C6.99859 4.05209 7.32823 4.05209 7.53157 3.84874L8.9681 2.41221V2.41082Z" fill="#195561"/>
<path d="M3.19981 8.59969C3.19981 8.46645 3.14915 8.33321 3.04713 8.23188L2.49959 7.68434H8.60022C8.88753 7.68434 9.1207 7.45116 9.1207 7.16385C9.1207 6.87655 8.88753 6.64337 8.60022 6.64337H2.49959L3.03325 6.10971C3.13457 6.00838 3.18593 5.87515 3.18593 5.7419C3.18593 5.60866 3.13527 5.47541 3.03325 5.37409C2.82992 5.17076 2.50028 5.17076 2.29694 5.37409C2.25947 5.41156 2.2213 5.44973 2.18383 5.48721C2.09153 5.57951 1.99853 5.67112 1.90693 5.76411C1.78826 5.88347 1.66959 6.00214 1.55022 6.12081C1.43225 6.23739 1.31774 6.35815 1.19838 6.47404C1.08318 6.58646 0.97006 6.70028 0.861799 6.82033C0.749375 6.94524 0.693857 7.10833 0.733414 7.27627C0.743129 7.3193 0.759785 7.3651 0.781298 7.40396C0.846532 7.51986 0.954098 7.61216 1.04709 7.70584C1.16021 7.82035 1.27541 7.93277 1.38992 8.04659C1.52594 8.18191 1.66126 8.31862 1.79659 8.45464C1.91179 8.56846 2.02699 8.68366 2.14219 8.79816C2.19771 8.85368 2.25253 8.9092 2.30805 8.96472L2.31082 8.96749C2.51416 9.17083 2.8438 9.17083 3.04713 8.96749C3.14915 8.86618 3.19981 8.73294 3.19981 8.59969Z" fill="#195561"/>
</svg>
