<svg width="12" height="13" viewBox="0 0 12 13" fill="none" xmlns="http://www.w3.org/2000/svg">
<path d="M8.12784 7.96118C9.5563 5.94062 9.07855 3.14275 7.06144 1.71219C5.04432 0.281635 2.25121 0.759854 0.823092 2.78075C-0.605028 4.8013 -0.127623 7.59884 1.88983 9.02939C3.32956 10.0504 5.23303 10.1291 6.75158 9.23073L10.0511 12.5161C10.4074 12.8917 11.0001 12.9068 11.3751 12.5499C11.7502 12.1934 11.7652 11.5996 11.4093 11.2239C11.398 11.212 11.3871 11.201 11.3751 11.1898L8.12784 7.96118ZM4.47273 8.26746C2.87877 8.2678 1.58646 6.97431 1.58544 5.37763C1.5851 3.78094 2.87638 2.48644 4.47069 2.48575C6.06261 2.48507 7.35423 3.7765 7.3573 5.37113C7.36003 6.96816 6.06943 8.26472 4.47478 8.26746C4.4741 8.26746 4.47376 8.26746 4.47273 8.26746Z" fill="white"/>
</svg>
