<svg width="16" height="16" viewBox="0 0 16 16" fill="none" xmlns="http://www.w3.org/2000/svg">
<path d="M13.8933 6.31088H8.19176C7.29223 6.31088 6.56044 7.05859 6.56044 7.97767V11.1427L5.08321 12.2208C4.96666 12.3057 4.89746 12.4431 4.89746 12.5895C4.89746 12.7359 4.96666 12.8733 5.08321 12.9583L6.57823 14.0494C6.69501 14.8522 7.37413 15.47 8.19176 15.47H13.8933C14.7928 15.47 15.5246 14.7223 15.5246 13.8031V7.97767C15.5246 7.05859 14.7928 6.31088 13.8933 6.31088ZM11.9762 12.6794C11.8717 12.6794 11.7909 12.6455 11.7672 12.5532L11.5866 11.9075H10.4984L10.318 12.5532C10.2942 12.6455 10.2134 12.6794 10.1089 12.6794C9.94253 12.6794 9.71923 12.5727 9.71923 12.4174C9.71923 12.4076 9.72397 12.3882 9.72871 12.3688L10.6458 9.31515C10.6885 9.16951 10.8643 9.1014 11.0402 9.1014C11.2207 9.1014 11.3965 9.16951 11.4393 9.31515L12.3564 12.3688C12.3611 12.3882 12.3658 12.4028 12.3658 12.4174C12.3658 12.5678 12.1425 12.6794 11.9762 12.6794Z" fill="#B0DDE8"/>
<path d="M10.627 11.4123H11.4538L11.0403 9.92197L10.627 11.4123Z" fill="#B0DDE8"/>
<path d="M5.67338 7.97768C5.67338 7.36913 5.88166 6.80968 6.22855 6.36861C5.72247 6.36861 5.2529 6.2068 4.86581 5.93191C4.47871 6.20691 4.00914 6.36861 3.50295 6.36861C3.36491 6.36861 3.25286 6.25413 3.25286 6.11296C3.25286 5.9718 3.36491 5.85744 3.50295 5.85744C3.85747 5.85744 4.18923 5.75711 4.47328 5.58338C4.13066 5.20557 3.90287 4.71776 3.84777 4.17791H3.50307C3.36491 4.17791 3.25286 4.06354 3.25286 3.92238C3.25286 3.78121 3.36491 3.66673 3.50307 3.66673H4.61583V3.04614C4.61583 2.90486 4.72777 2.79049 4.86592 2.79049C5.00408 2.79049 5.11602 2.90486 5.11602 3.04614V3.66673H6.22878C6.36694 3.66673 6.47899 3.78121 6.47899 3.92238C6.47899 4.06354 6.36694 4.17791 6.22878 4.17791H5.88408C5.82898 4.71776 5.60118 5.20557 5.25856 5.58338C5.5425 5.75735 5.87438 5.85744 6.22878 5.85744C6.36082 5.85744 6.46871 5.96201 6.47806 6.09455C6.928 5.66682 7.53041 5.40445 8.19197 5.40445H9.34806V4.32733L10.8253 3.24926C10.9417 3.16429 11.0109 3.0269 11.0109 2.88055C11.0109 2.73408 10.9417 2.59669 10.8253 2.51171L9.33027 1.42067C9.21337 0.617843 8.53425 -3.05176e-05 7.71663 -3.05176e-05H2.01522C1.11558 -3.05176e-05 0.383789 0.747673 0.383789 1.66675V7.49235C0.383789 8.41143 1.11558 9.15913 2.01522 9.15913H5.67338V7.97768Z" fill="#B0DDE8"/>
<path d="M4.86597 5.26398C5.13974 4.97375 5.3256 4.59689 5.38001 4.17801H4.35205C4.40646 4.59689 4.59243 4.97375 4.86597 5.26398Z" fill="#B0DDE8"/>
</svg>
