<svg width="18" height="15" viewBox="0 0 18 15" fill="none" xmlns="http://www.w3.org/2000/svg">
<path d="M6.9889 14.9039C6.25374 14.9039 5.49704 14.8429 4.73581 14.7206C3.39505 14.505 2.03782 13.7864 1.65377 13.5712L0.646484 13.0068L1.73704 12.6393C2.92915 12.2376 3.65433 11.9884 4.55202 11.5981C3.65316 11.1521 2.96041 10.3496 2.62694 9.31236L2.37324 8.5231L2.58129 8.55566C2.38401 8.3519 2.22823 8.14508 2.10748 7.957C1.67802 7.28856 1.45065 6.47178 1.49903 5.77184L1.54676 5.08293L1.94924 5.24269C1.77945 4.91412 1.65675 4.56322 1.58464 4.19544C1.40889 3.29851 1.55597 2.34563 1.99891 1.51237L2.3495 0.85283L2.81839 1.42996C4.3013 3.25545 6.17955 4.33832 8.40878 4.65533C8.31772 4.01214 8.38595 3.39142 8.61176 2.83503C8.87468 2.18719 9.34239 1.63784 9.96393 1.24627C10.6542 0.811493 11.4913 0.600819 12.3211 0.653056C13.2014 0.708482 14.0006 1.04649 14.6354 1.63119C14.9454 1.54865 15.1738 1.46053 15.4825 1.34143C15.6682 1.26979 15.8788 1.18845 16.1424 1.0954L17.1136 0.752478L16.4803 2.60614C16.522 2.60256 16.5651 2.5995 16.6101 2.5975L17.6472 2.54939L17.0343 3.4079C16.9991 3.45708 16.9902 3.47104 16.9777 3.49031C16.9283 3.56661 16.8668 3.66151 16.0254 4.81284C15.8148 5.10114 15.7096 5.47663 15.7292 5.87033C15.8037 7.36645 15.6246 8.72008 15.1965 9.89347C14.7915 11.0036 14.164 11.9561 13.3316 12.7245C12.3015 13.6751 10.988 14.326 9.42735 14.6588C8.66183 14.8221 7.83976 14.9039 6.9889 14.9039Z" fill="#246B79"/>
</svg>
