<svg width="18" height="11" viewBox="0 0 18 11" fill="none" xmlns="http://www.w3.org/2000/svg">
<path d="M15.5023 7.11519C16.0656 7.67976 16.6615 8.21109 17.1673 8.83402C17.3913 9.10958 17.6025 9.39453 17.7632 9.715C17.9927 10.172 17.7855 10.6731 17.3868 10.7003L14.9107 10.6998C14.2712 10.7541 13.7623 10.4894 13.3333 10.0408C12.9908 9.68328 12.673 9.3014 12.3431 8.93171C12.2084 8.77997 12.0664 8.63712 11.8973 8.52471C11.5597 8.29939 11.2664 8.36841 11.073 8.73024C10.876 9.09841 10.8309 9.50642 10.8122 9.91621C10.7852 10.5153 10.6091 10.6719 10.0233 10.7C8.77152 10.7602 7.58379 10.5653 6.47989 9.91774C5.50606 9.34657 4.75232 8.54044 4.09552 7.62774C2.81654 5.84852 1.83703 3.89574 0.956923 1.88689C0.758844 1.43447 0.903756 1.1924 1.39017 1.18301C2.19832 1.16703 3.00646 1.16906 3.8146 1.18225C4.1435 1.18758 4.36111 1.38068 4.48748 1.69912C4.92419 2.80162 5.45957 3.85058 6.13047 4.82341C6.30926 5.08248 6.49176 5.34079 6.75166 5.52373C7.03852 5.72571 7.25712 5.65898 7.39239 5.33038C7.47894 5.12156 7.51628 4.89827 7.53507 4.67447C7.59937 3.90792 7.60704 3.14163 7.49576 2.37813C7.42651 1.90034 7.16463 1.59179 6.70047 1.50146C6.46406 1.45553 6.49868 1.36571 6.61367 1.22716C6.81324 0.987634 7.00019 0.839451 7.37384 0.839451L10.1714 0.838943C10.6123 0.927752 10.7113 1.13074 10.7711 1.58646L10.7736 4.77647C10.7684 4.95282 10.8599 5.47552 11.1685 5.59097C11.4158 5.67471 11.579 5.47121 11.7269 5.31059C12.3978 4.58008 12.8758 3.71787 13.3038 2.82547C13.4928 2.43192 13.6557 2.02467 13.814 1.61665C13.9317 1.31496 14.1147 1.16652 14.4466 1.1716L17.1405 1.17489C17.2199 1.17489 17.3005 1.17566 17.3792 1.18961C17.8332 1.26929 17.9576 1.46974 17.8171 1.92419C17.5961 2.63821 17.1665 3.23297 16.7466 3.82926C16.2965 4.46767 15.8166 5.08375 15.3709 5.72495C14.9614 6.31109 14.9938 6.60618 15.5023 7.11519Z" fill="#246B79"/>
</svg>
